<svg width="162" height="42" viewBox="0 0 162 42" fill="none" xmlns="http://www.w3.org/2000/svg">
<path d="M40.9576 23.2547L38.2377 23.5488C38.2105 23.2711 38.1261 23.0124 37.9846 22.7728C37.843 22.5333 37.6306 22.3427 37.3475 22.2011C37.0698 22.0541 36.7104 21.9806 36.2694 21.9806C35.6268 21.9806 35.0633 22.1249 34.5787 22.4135C34.094 22.702 33.8191 23.0723 33.7537 23.5243C33.6938 23.8618 33.7755 24.1368 33.9988 24.3492C34.222 24.5615 34.6358 24.7412 35.2402 24.8882L37.3148 25.3456C38.4583 25.6016 39.2805 26.0154 39.7814 26.5871C40.2878 27.1588 40.4648 27.9075 40.3123 28.8332C40.1816 29.6064 39.844 30.287 39.2995 30.8751C38.755 31.4577 38.0581 31.9124 37.2086 32.2391C36.3646 32.5658 35.4281 32.7292 34.399 32.7292C32.8362 32.7292 31.6329 32.4052 30.7889 31.7572C29.9503 31.1038 29.5338 30.2054 29.5392 29.0619L32.4469 28.7842C32.4796 29.3505 32.6783 29.7779 33.0431 30.0665C33.408 30.3497 33.9144 30.494 34.5623 30.4994C35.292 30.5048 35.9073 30.3524 36.4082 30.042C36.9146 29.7262 37.2005 29.3423 37.2658 28.8904C37.3203 28.5528 37.2359 28.2778 37.0126 28.0654C36.7948 27.8531 36.4055 27.6843 35.8446 27.5591L33.7864 27.1098C32.6212 26.8539 31.7908 26.421 31.2953 25.8112C30.8052 25.1959 30.6391 24.42 30.7971 23.4834C30.9277 22.7211 31.2463 22.065 31.7527 21.515C32.2645 20.9596 32.9206 20.5322 33.7211 20.2327C34.5215 19.9278 35.4172 19.7753 36.4082 19.7753C37.9002 19.7753 39.0246 20.0884 39.7814 20.7146C40.5383 21.3408 40.9303 22.1875 40.9576 23.2547ZM53.5806 23.2547L50.8608 23.5488C50.8336 23.2711 50.7492 23.0124 50.6076 22.7728C50.466 22.5333 50.2537 22.3427 49.9705 22.2011C49.6928 22.0541 49.3335 21.9806 48.8924 21.9806C48.2499 21.9806 47.6863 22.1249 47.2017 22.4135C46.7171 22.702 46.4421 23.0723 46.3768 23.5243C46.3169 23.8618 46.3986 24.1368 46.6218 24.3492C46.8451 24.5615 47.2589 24.7412 47.8633 24.8882L49.9379 25.3456C51.0813 25.6016 51.9035 26.0154 52.4045 26.5871C52.9109 27.1588 53.0878 27.9075 52.9354 28.8332C52.8047 29.6064 52.4671 30.287 51.9226 30.8751C51.3781 31.4577 50.6811 31.9124 49.8317 32.2391C48.9877 32.5658 48.0511 32.7292 47.022 32.7292C45.4593 32.7292 44.2559 32.4052 43.4119 31.7572C42.5734 31.1038 42.1568 30.2054 42.1623 29.0619L45.07 28.7842C45.1026 29.3505 45.3014 29.7779 45.6662 30.0665C46.031 30.3497 46.5374 30.494 47.1854 30.4994C47.915 30.5048 48.5303 30.3524 49.0312 30.042C49.5376 29.7262 49.8235 29.3423 49.8888 28.8904C49.9433 28.5528 49.8589 28.2778 49.6357 28.0654C49.4179 27.8531 49.0285 27.6843 48.4677 27.5591L46.4094 27.1098C45.2442 26.8539 44.4138 26.421 43.9183 25.8112C43.4283 25.1959 43.2622 24.42 43.4201 23.4834C43.5508 22.7211 43.8693 22.065 44.3757 21.515C44.8875 20.9596 45.5437 20.5322 46.3441 20.2327C47.1445 19.9278 48.0402 19.7753 49.0312 19.7753C50.5232 19.7753 51.6476 20.0884 52.4045 20.7146C53.1613 21.3408 53.5534 22.1875 53.5806 23.2547ZM60.2821 32.7292C59.0243 32.7292 57.9843 32.4678 57.1621 31.9451C56.3399 31.4169 55.7627 30.6709 55.4306 29.7071C55.1039 28.7379 55.0494 27.5972 55.2672 26.2849C55.4796 24.9944 55.9125 23.8618 56.5659 22.8872C57.2193 21.9071 58.036 21.1448 59.0162 20.6002C60.0017 20.0503 61.0907 19.7753 62.2832 19.7753C63.0564 19.7753 63.767 19.9006 64.415 20.151C65.0629 20.3961 65.6101 20.7772 66.0566 21.2945C66.5031 21.8118 66.8108 22.4706 66.9796 23.2711C67.1484 24.066 67.1402 25.0135 66.9551 26.1134L66.8162 27.02H56.525L56.8436 25.0271H64.2924C64.3904 24.4608 64.3578 23.9571 64.1944 23.5161C64.0311 23.0696 63.7588 22.7184 63.3777 22.4625C62.9965 22.2065 62.5201 22.0786 61.9483 22.0786C61.3657 22.0786 60.8212 22.2283 60.3148 22.5278C59.8139 22.8218 59.3919 23.203 59.0488 23.6713C58.7058 24.1395 58.488 24.6323 58.3954 25.1496L58.0605 27.0608C57.9408 27.8449 57.968 28.4847 58.1422 28.9802C58.3165 29.4757 58.6214 29.8405 59.057 30.0747C59.4926 30.3088 60.0426 30.4259 60.7069 30.4259C61.1425 30.4259 61.5454 30.366 61.9157 30.2462C62.2859 30.1264 62.6154 29.9467 62.9039 29.7071C63.198 29.4621 63.443 29.1626 63.639 28.8087L66.3425 29.1191C66.043 29.8487 65.6047 30.4858 65.0275 31.0303C64.4503 31.5694 63.7588 31.9886 62.9529 32.2881C62.1525 32.5821 61.2623 32.7292 60.2821 32.7292ZM68.4252 32.4841L70.5162 19.9387H73.3503L72.9909 22.0704H73.1461C73.5273 21.3517 74.0527 20.7908 74.7225 20.3879C75.3922 19.9795 76.1464 19.7753 76.9849 19.7753C77.8289 19.7753 78.5095 19.9822 79.0268 20.3961C79.5495 20.8044 79.8708 21.3626 79.9906 22.0704H80.1213C80.5133 21.368 81.0742 20.8099 81.8038 20.3961C82.5389 19.9822 83.3638 19.7753 84.2786 19.7753C85.4221 19.7753 86.2987 20.1401 86.9086 20.8698C87.5184 21.5994 87.7063 22.6639 87.4721 24.0633L86.0673 32.4841H83.1106L84.4501 24.5207C84.5699 23.7421 84.4501 23.173 84.0907 22.8137C83.7368 22.4489 83.2604 22.2664 82.6614 22.2664C81.9481 22.2664 81.3546 22.487 80.8809 22.928C80.4126 23.3691 80.124 23.9462 80.0151 24.6596L78.7001 32.4841H75.8006L77.1564 24.3982C77.2544 23.7502 77.1401 23.2329 76.8134 22.8463C76.4921 22.4597 76.0184 22.2664 75.3922 22.2664C74.9675 22.2664 74.5618 22.3753 74.1752 22.5931C73.7886 22.8109 73.4592 23.1159 73.187 23.5079C72.9202 23.8945 72.7459 24.3437 72.6642 24.8556L71.3901 32.4841H68.4252ZM89.1894 32.4841L91.9664 15.7569H94.923L93.8939 22.0132H94.0246C94.2206 21.7083 94.4847 21.3843 94.8169 21.0413C95.1544 20.6928 95.5819 20.3961 96.0992 20.151C96.6164 19.9006 97.2426 19.7753 97.9777 19.7753C98.9469 19.7753 99.78 20.0231 100.477 20.5186C101.174 21.0086 101.672 21.7355 101.972 22.6993C102.271 23.6577 102.307 24.8338 102.078 26.2277C101.849 27.6053 101.43 28.776 100.82 29.7398C100.21 30.7036 99.4724 31.4387 98.6066 31.9451C97.7409 32.4515 96.8152 32.7047 95.8296 32.7047C95.1109 32.7047 94.5337 32.5849 94.0981 32.3453C93.6679 32.1057 93.3385 31.8171 93.1098 31.4795C92.8811 31.1365 92.7151 30.8125 92.6116 30.5076H92.4237L92.097 32.4841H89.1894ZM93.1343 26.2114C93.0036 27.0227 93.0009 27.7333 93.1262 28.3431C93.2568 28.953 93.5128 29.4294 93.8939 29.7725C94.2805 30.1101 94.7896 30.2789 95.4213 30.2789C96.0692 30.2789 96.641 30.1046 97.1365 29.7561C97.6374 29.4022 98.0512 28.9203 98.3779 28.3105C98.7046 27.6952 98.9333 26.9955 99.064 26.2114C99.1892 25.4328 99.1892 24.7412 99.064 24.1368C98.9442 23.5324 98.691 23.0587 98.3044 22.7157C97.9233 22.3726 97.406 22.2011 96.7526 22.2011C96.1155 22.2011 95.5492 22.3672 95.0537 22.6993C94.5582 23.0315 94.1471 23.497 93.8204 24.096C93.4937 24.6949 93.265 25.4001 93.1343 26.2114ZM109.28 15.7569L106.503 32.4841H103.546L106.323 15.7569H109.28ZM110.613 37.1887C110.21 37.1887 109.843 37.156 109.51 37.0907C109.184 37.0308 108.925 36.96 108.734 36.8783L109.813 34.575C110.221 34.7003 110.589 34.7547 110.915 34.7384C111.247 34.7275 111.552 34.6159 111.83 34.4035C112.113 34.1966 112.391 33.8563 112.663 33.3826L113.039 32.7047L110.638 19.9387H113.66L114.966 29.4294H115.097L119.581 19.9387H122.84L115.497 33.987C115.143 34.6676 114.732 35.2448 114.264 35.7185C113.796 36.1977 113.259 36.5625 112.655 36.813C112.056 37.0634 111.375 37.1887 110.613 37.1887ZM127.941 15.7569L130.113 28.923H130.285L136.811 15.7569H140.143L131.469 32.4841H127.728L124.616 15.7569H127.941ZM139.439 32.4841L141.529 19.9387H144.486L142.395 32.4841H139.439ZM143.441 18.1418C142.967 18.1418 142.575 17.9839 142.265 17.6681C141.954 17.3523 141.818 16.9738 141.856 16.5328C141.894 16.0917 142.093 15.7133 142.452 15.3975C142.817 15.0817 143.234 14.9238 143.702 14.9238C144.176 14.9238 144.565 15.0817 144.87 15.3975C145.18 15.7133 145.317 16.0917 145.278 16.5328C145.246 16.9738 145.047 17.3523 144.682 17.6681C144.323 17.9839 143.909 18.1418 143.441 18.1418ZM145.28 32.4841L145.599 30.6056L153.399 22.4951L153.432 22.389H147.175L147.592 19.9387H157.458L157.132 21.9561L149.658 29.9277L149.626 30.0338H155.996L155.596 32.4841H145.28Z" fill="#a32d2d"/>
<path d="M4.69014 40.1841C10.62 33.4077 21.5673 25.7841 26.1287 32.9841M1.04102 37.9902L23.9621 3.48413L27.041 27.5098C24.9884 23.3053 15.0673 21.1723 1.04102 37.9902Z" stroke="#a32d2d" stroke-width="2.5" stroke-linecap="square"/>
</svg>
