<svg width="34" height="35" viewBox="0 0 34 35" fill="none" xmlns="http://www.w3.org/2000/svg">
<path fill-rule="evenodd" clip-rule="evenodd" d="M8.16334 11.9999C9.31579 10.0243 11.0559 8.46276 13.1231 7.54924C15.1904 6.63573 17.4734 6.41938 19.6302 6.9326C21.787 7.44583 23.7016 8.661 25.0872 10.3961C26.4727 12.1312 27.2547 14.2929 27.3159 16.5573C27.3771 18.8217 26.7143 21.067 25.4268 22.9569C24.1393 24.8468 22.2963 26.2795 20.1739 27.0405C18.0515 27.8015 15.764 27.8497 13.6539 27.1781C11.5438 26.5064 9.72479 25.151 8.46928 23.3148C8.31052 23.102 8.07513 22.9624 7.8124 22.9252C7.54966 22.8879 7.27994 22.9559 7.05967 23.1149C6.83941 23.2739 6.68568 23.5116 6.63065 23.7783C6.57563 24.0449 6.62358 24.3199 6.76447 24.5455C8.27122 26.749 10.4542 28.3755 12.9864 29.1813C15.5186 29.9872 18.2638 29.9291 20.8107 29.0157C23.3576 28.1022 25.5691 26.3827 27.114 24.1146C28.6589 21.8465 29.4539 19.152 29.3801 16.4346C29.3063 13.7172 28.3676 11.1233 26.7045 9.04133C25.0415 6.95938 22.7437 5.5015 20.1553 4.88606C17.5668 4.27062 14.8272 4.53076 12.3466 5.62749C9.86609 6.72423 7.7782 8.59854 6.39571 10.9697L8.16334 11.9999Z" fill="#E52F2F"/>
<path d="M12.9268 11.1854L5.97641 7.13454C5.89242 7.08563 5.79576 7.06249 5.69774 7.06782C5.59971 7.07316 5.50439 7.10675 5.42293 7.16466C5.34147 7.22257 5.27725 7.3024 5.23778 7.39482C5.19831 7.48723 5.18522 7.58839 5.20006 7.68645L6.16004 14.0274C6.20891 14.3498 6.53415 14.5394 6.83881 14.423L12.8292 12.1329C12.9218 12.0975 13.0034 12.0363 13.0643 11.9564C13.1253 11.8765 13.1631 11.7813 13.1733 11.6818C13.1836 11.5824 13.1658 11.4829 13.1222 11.395C13.0785 11.3071 13.0107 11.2344 12.9268 11.1854Z" fill="#E52F2F"/>
</svg>
